grf
version=1
nRows=6
nColumns=37
inDegrees=no
endheader
time	ground_force_1_vx	ground_force_1_vy	ground_force_1_vz	ground_force_1_px	ground_force_1_py	ground_force_1_pz	ground_moment_1_mx	ground_moment_1_my	ground_moment_1_mz	ground_force_2_vx	ground_force_2_vy	ground_force_2_vz	ground_force_2_px	ground_force_2_py	ground_force_2_pz	ground_moment_2_mx	ground_moment_2_my	ground_moment_2_mz	ground_force_3_vx	ground_force_3_vy	ground_force_3_vz	ground_force_3_px	ground_force_3_py	ground_force_3_pz	ground_moment_3_mx	ground_moment_3_my	ground_moment_3_mz	ground_force_4_vx	ground_force_4_vy	ground_force_4_vz	ground_force_4_px	ground_force_4_py	ground_force_4_pz	ground_moment_4_mx	ground_moment_4_my	ground_moment_4_mz
      0.00000000	      0.00000000	     -0.00000000	      0.00000000	      0.00000000	      0.00000000	      0.00000000	      0.00000000	      0.00000000	      0.00000000	    -10.78871822	     -5.52608490	   -776.37213135	   -266.67434052	  -1146.99071295	      0.00000000	      0.00000000	      0.00000000	   -234.85428051	      0.00000000	     -0.00000000	      0.00000000	      0.00000000	      0.00000000	      0.00000000	      0.00000000	      0.00000000	      0.00000000	    -35.10087823	     16.49159166	     75.78146362	    603.90690505	   -565.30400522	      0.00000000	      0.00000000	     -0.00000000	    -59.54407184
      0.01000000	      0.00000000	     -0.00000000	      0.00000000	      0.00000000	      0.00000000	      0.00000000	      0.00000000	      0.00000000	      0.00000000	     -9.38790226	     -6.28669930	   -777.70227051	   -267.42681461	  -1148.74618647	      0.00000000	      0.00000000	     -0.00000000	   -227.79116752	      0.00000000	     -0.00000000	      0.00000000	      0.00000000	      0.00000000	      0.00000000	      0.00000000	      0.00000000	      0.00000000	    -34.93675094	     15.73821850	     74.75280762	    607.45231097	   -563.36445837	      0.00000000	      0.00000000	     -0.00000000	    -93.85770395
      0.02000000	      0.00000000	     -0.00000000	      0.00000000	      0.00000000	      0.00000000	      0.00000000	      0.00000000	      0.00000000	      0.00000000	     -6.85480547	     -6.39668465	   -776.77471924	   -268.74372030	  -1150.26121611	      0.00000000	      0.00000000	     -0.00000000	   -250.60944022	      0.00000000	     -0.00000000	      0.00000000	      0.00000000	      0.00000000	      0.00000000	      0.00000000	      0.00000000	      0.00000000	    -35.10907983	     16.39527437	     74.64524841	    607.22205851	   -568.40428681	      0.00000000	      0.00000000	     -0.00000000	     -7.17860266
      0.03000000	      0.00000000	     -0.00000000	      0.00000000	      0.00000000	      0.00000000	      0.00000000	      0.00000000	      0.00000000	      0.00000000	     -5.14595222	     -3.91415501	   -773.73547363	   -269.06813647	  -1152.49667718	      0.00000000	      0.00000000	     -0.00000000	   -546.76102013	      0.00000000	     -0.00000000	      0.00000000	      0.00000000	      0.00000000	      0.00000000	      0.00000000	      0.00000000	      0.00000000	    -35.01951457	     16.24302026	     74.75280762	    607.02676761	   -565.58300742	      0.00000000	      0.00000000	     -0.00000000	    -85.70484949
      0.04000000	      0.00000000	     -0.00000000	      0.00000000	      0.00000000	      0.00000000	      0.00000000	      0.00000000	      0.00000000	      0.00000000	     -4.57715702	     -1.43290508	   -770.12231445	   -269.31871808	  -1154.11299221	      0.00000000	      0.00000000	     -0.00000000	   -578.30809990	      0.00000000	     -0.00000000	      0.00000000	      0.00000000	      0.00000000	      0.00000000	      0.00000000	      0.00000000	      0.00000000	    -34.93715526	     16.24316521	     76.29408264	    601.85165402	   -564.90170713	      0.00000000	      0.00000000	     -0.00000000	    -91.75903122
      0.05000000	      0.00000000	     -0.00000000	      0.00000000	      0.00000000	      0.00000000	      0.00000000	      0.00000000	      0.00000000	      0.00000000	     -4.42584467	      2.33790636	   -765.09704590	   -268.74380628	  -1155.67865867	      0.00000000	      0.00000000	     -0.00000000	   -570.15126685	      0.00000000	     -0.00000000	      0.00000000	      0.00000000	      0.00000000	      0.00000000	      0.00000000	      0.00000000	      0.00000000	    -35.01373913	     16.08395883	     75.64488220	    604.67753073	   -564.12341875	      0.00000000	      0.00000000	     -0.00000000	    -61.00212412
